HIERARCHY
ROOT Hips
{
	OFFSET 0.000000 0.000000 0.000000
	CHANNELS 6 Xposition Yposition Zposition Zrotation Yrotation Xrotation 
	JOINT LHipJoint
	{
		OFFSET 0.000000 0.000000 0.000000
		CHANNELS 3 Zrotation Yrotation Xrotation
		JOINT LeftUpLeg
		{
			OFFSET 1.363060 -1.794630 0.839290
			CHANNELS 3 Zrotation Yrotation Xrotation
			JOINT LeftLeg
			{
				OFFSET 2.448110 -6.726130 0.000000
				CHANNELS 3 Zrotation Yrotation Xrotation
				JOINT LeftFoot
				{
					OFFSET 2.562200 -7.039590 0.000000
					CHANNELS 3 Zrotation Yrotation Xrotation
					JOINT LeftToeBase
					{
						OFFSET 0.157640 -0.433110 2.322550
						CHANNELS 3 Zrotation Yrotation Xrotation
						End Site
						{
							OFFSET 0.000000 0.000000 0.000000
						}
					}
				}
			}
		}
	}
	JOINT RHipJoint
	{
		OFFSET 0.000000 0.000000 0.000000
		CHANNELS 3 Zrotation Yrotation Xrotation
		JOINT RightUpLeg
		{
			OFFSET -1.305520 -1.794630 0.839290
			CHANNELS 3 Zrotation Yrotation Xrotation
			JOINT RightLeg
			{
				OFFSET -2.542530 -6.985550 0.000000
				CHANNELS 3 Zrotation Yrotation Xrotation
				JOINT RightFoot
				{
					OFFSET -2.568260 -7.056230 0.000000
					CHANNELS 3 Zrotation Yrotation Xrotation
					JOINT RightToeBase
					{
						OFFSET -0.164730 -0.452590 2.363150
						CHANNELS 3 Zrotation Yrotation Xrotation
						End Site
						{
							OFFSET 0.000000 0.000000 0.000000
						}
					}
				}
			}
		}
	}
}
MOTION
Frames: 30
Frame Time: 0.008333
0.750264 17.106810 0.285449 -150.240820 80.823803 -122.921013 -9.824764 -1.614841 1.866361 -11.239830 -10.914010 -51.253538 -0.590959 1.444350 44.144438 3.402223 13.636361 -18.131067 -2.141500 0.000001 -9.435801 9.595382 -2.227071 -2.782742 6.343600 -7.777251 -21.803218 1.258083 -2.690465 35.702408 -0.750989 -3.189815 9.085184 -1.045999 0.000000 -71.967300
1.044985 17.148685 0.214894 -152.064928 80.391866 -124.607641 -9.614864 -1.486992 2.100825 -12.107767 -11.209250 -51.302127 -0.836826 1.108786 39.769573 3.417143 13.383723 -17.324779 -1.860400 0.000000 -11.116500 9.634527 -2.240653 -2.859645 5.932543 -7.902018 -21.228168 1.155858 -2.711095 36.240660 -0.885136 -4.054396 9.276465 -1.292200 -0.000000 -69.223000
1.341211 17.178193 0.142967 -153.395616 79.911514 -125.825693 -9.434578 -1.351536 2.297307 -13.062859 -11.266483 -51.249260 -1.098841 0.761779 35.434971 3.427734 13.190785 -16.493656 -1.582400 -0.000000 -12.977100 9.661242 -2.267444 -2.906633 5.609087 -7.850362 -20.648388 1.061414 -2.736221 36.949357 -1.038099 -5.075848 8.934854 -1.556300 -0.000001 -66.640700
1.638247 17.195242 0.069349 -154.237790 79.392307 -126.605747 -9.294555 -1.218593 2.437739 -14.112592 -11.055302 -51.087537 -1.378359 0.411854 31.239975 3.413667 12.988277 -15.613906 -1.296700 -0.000000 -14.902300 9.674399 -2.311481 -2.925907 5.377958 -7.621402 -20.040270 0.972090 -2.768276 37.816854 -1.202307 -6.176556 8.178691 -1.799000 0.000000 -64.538000
1.935547 17.199715 -0.006353 -154.597460 78.843152 -126.975977 -9.203347 -1.096679 2.506071 -15.251882 -10.555716 -50.832582 -1.672117 0.073886 27.318193 3.356561 12.707476 -14.677259 -1.001500 0.000000 -16.722200 9.672595 -2.376627 -2.918301 5.246024 -7.222998 -19.394649 0.886290 -2.809804 38.843499 -1.368051 -7.268602 7.117363 -1.982500 0.000000 -62.896200
2.232604 17.191519 -0.084439 -154.522751 78.273885 -127.004346 -9.163973 -0.990336 2.490721 -16.464280 -9.773399 -50.510705 -1.971732 -0.232571 23.819651 3.246334 12.299771 -13.700439 -0.706899 0.000000 -18.256300 9.656179 -2.464252 -2.887569 5.210129 -6.685348 -18.708131 0.802653 -2.863103 40.025091 -1.524596 -8.270043 5.873637 -2.083500 0.000000 -61.783300
2.529212 17.170544 -0.164994 -154.105188 77.693658 -126.789671 -9.172550 -0.899027 2.392670 -17.714545 -8.755521 -50.159405 -2.263325 -0.487824 20.882538 3.086781 11.756810 -12.724167 -0.431500 -0.000000 -19.362900 9.627771 -2.572917 -2.839345 5.256231 -6.057504 -17.993852 0.720455 -2.930272 41.360042 -1.660408 -9.108914 4.556429 -2.094200 -0.000000 -61.187699
2.825112 17.136645 -0.248001 -153.446691 77.108069 -126.430844 -9.221338 -0.820131 2.226085 -18.942197 -7.585808 -49.816690 -2.528560 -0.676023 18.614404 2.895713 11.113971 -11.815368 -0.197800 -0.000000 -19.936600 9.590275 -2.699342 -2.781948 5.365027 -5.400945 -17.274937 0.639358 -3.012736 42.845671 -1.765249 -9.732931 3.254945 -2.021900 -0.000000 -61.048700
3.120395 17.089769 -0.333203 -152.673051 76.522754 -126.037071 -9.298829 -0.750367 2.019833 -20.070002 -6.387219 -49.507049 -2.747079 -0.790399 17.067199 2.703179 10.455334 -11.055659 -0.024300 0.000000 -19.898900 9.548805 -2.837800 -2.725221 5.505477 -4.785412 -16.586566 0.558633 -3.110989 44.479733 -1.831964 -10.112178 2.031585 -1.883900 -0.000000 -61.258100
3.415111 17.029824 -0.420277 -151.896055 75.941084 -125.697617 -9.394082 -0.688532 1.808376 -21.018829 -5.290938 -49.238993 -2.900781 -0.832258 16.250413 2.542247 9.882750 -10.537664 0.076900 0.000000 -19.174600 9.508383 -2.982028 -2.679135 5.643325 -4.276972 -15.964308 0.476811 -3.224060 46.256912 -1.858424 -10.245524 0.921629 -1.702100 -0.000000 -61.683700
3.709375 16.956919 -0.508765 -151.211241 75.365549 -125.484596 -9.497643 -0.635105 1.623226 -21.729260 -4.410293 -49.012346 -2.978336 -0.807989 16.151188 2.440694 9.484153 -10.356971 0.098200 0.000000 -17.695600 9.473662 -3.125690 -2.651668 5.744409 -3.929293 -15.439685 0.391415 -3.349446 48.168561 -1.848315 -10.161676 -0.065370 -1.498700 0.000001 -62.181200
4.003162 16.871342 -0.598338 -150.683130 74.794794 -125.441814 -9.602179 -0.590977 1.485818 -22.178541 -3.819179 -48.828692 -2.977932 -0.725366 16.753252 2.414635 9.305040 -10.600959 0.031000 -0.000000 -15.415700 9.448473 -3.263251 -2.647232 5.778000 -3.777822 -15.036241 0.299357 -3.483502 50.202988 -1.810610 -9.916423 -0.939663 -1.292099 0.000000 -62.628400
4.296364 16.773720 -0.688586 -150.358275 74.227186 -125.599906 -9.702198 -0.556248 1.403975 -22.384160 -3.541685 -48.698089 -2.907529 -0.590730 18.044308 2.467070 9.341051 -11.335607 -0.137499 0.000000 -12.338600 9.435560 -3.389695 -2.666264 5.721174 -3.835434 -14.768184 0.197250 -3.621990 52.346126 -1.757958 -9.585125 -1.726288 -1.095801 0.000000 -62.927200
4.588672 16.665039 -0.779200 -150.255358 73.657416 -125.965354 -9.795060 -0.530457 1.373724 -22.393158 -3.557376 -48.636976 -2.782207 -0.409115 20.004470 2.589125 9.546877 -12.588161 -0.422001 0.000000 -8.556199 9.436281 -3.500916 -2.705571 5.561560 -4.092215 -14.641810 0.082296 -3.760770 54.581564 -1.704440 -9.252685 -2.457228 -0.918000 0.000000 -63.027801
4.879612 16.546883 -0.869914 -150.379578 73.079073 -126.534716 -9.881047 -0.512870 1.382767 -22.267475 -3.813835 -48.655012 -2.620935 -0.186191 22.582016 2.763782 9.859646 -14.333422 -0.831000 0.000001 -4.276900 9.450972 -3.593074 -2.760328 5.297647 -4.518342 -14.656649 -0.047257 -3.896632 56.891093 -1.663215 -9.000845 -3.166592 -0.761500 0.000001 -62.908800
5.168455 16.421407 -0.960554 -150.725256 72.483827 -127.293450 -9.962673 -0.502140 1.416474 -22.070078 -4.246378 -48.742621 -2.442961 0.069111 25.673162 2.970504 10.221528 -16.492002 178.640700 -0.000000 -0.186899 9.479964 -3.662527 -2.825216 4.935261 -5.069828 -14.810951 -0.191667 -4.027775 59.254887 -1.644599 -8.896168 -3.884770 -0.624400 0.000000 -62.568700
5.454423 16.291552 -1.050825 -151.296609 71.866108 -128.233849 -10.041945 -0.495013 1.461881 -21.859944 -4.792545 -48.868911 -2.266421 0.344082 29.119785 3.189108 10.587056 -18.947888 178.013400 -0.000000 -4.492000 9.524476 -3.705092 -2.895341 4.483996 -5.694637 -15.106222 -0.349991 -4.153842 61.651057 -1.655160 -8.981931 -4.633360 -0.501000 -0.000000 -62.024700
5.736674 16.160838 -1.140595 -152.096408 71.220032 -129.343874 -10.118825 -0.486209 1.509582 -21.689411 -5.399337 -48.987662 -2.106411 0.623642 32.728884 3.403012 10.921984 -21.573773 177.319300 0.000000 -8.354899 9.586466 -3.716874 -2.965691 3.954936 -6.338043 -15.550338 -0.520028 -4.275779 64.056304 -1.697217 -9.272681 -5.423629 -0.382900 -0.000000 -61.287201
6.014390 16.033315 -1.229647 -153.131773 70.542749 -130.613893 -10.190157 -0.469270 1.553289 -21.601618 -6.024498 -49.050557 -1.974325 0.893366 36.302223 3.600903 11.198565 -24.252012 176.596100 0.000000 -11.596500 9.667662 -3.694220 -3.030911 3.362251 -6.946800 -16.158011 -0.698981 -4.395260 66.445916 -1.769276 -9.755232 -6.254899 -0.261100 0.000000 -60.365300
6.286864 15.913053 -1.318118 -154.392599 69.830204 -132.017196 -10.251621 -0.438918 1.589151 -21.624224 -6.634093 -49.016325 -1.876777 1.141229 39.662952 3.776083 11.391907 -26.881759 175.884000 -0.000000 -14.131600 9.767957 -3.635098 -3.084379 2.725138 -7.471646 -16.947736 -0.883540 -4.514040 68.793337 -1.866620 -10.393133 -7.115997 -0.128200 -0.000000 -59.272600
6.553521 15.803891 -1.406378 -155.849477 69.079307 -133.512550 -10.299761 -0.392942 1.614750 -21.764986 -7.201432 -48.854959 -1.815935 1.358205 42.669203 3.925042 11.481715 -29.377586 175.222299 0.000000 -15.931800 9.883944 -3.538870 -3.119146 2.068445 -7.869677 -17.936884 -1.070333 -4.633314 71.070068 -1.981990 -11.132575 -7.987656 0.019800 0.000000 -58.033300
6.813982 15.709110 -1.495077 -157.454927 68.288135 -135.047220 -10.333499 -0.332267 1.628299 -22.012520 -7.704019 -48.546176 -1.790798 1.537910 45.218378 4.045197 11.452231 -31.665411 174.648000 0.000001 -17.001500 10.009040 -3.406376 -3.128603 1.419908 -8.107266 -19.136625 -1.255870 -4.753175 73.244609 -2.106393 -11.909624 -8.847136 0.182700 -0.000000 -56.678100
7.067942 15.631205 -1.585231 -159.140971 67.455490 -136.557837 -10.355234 -0.260528 1.628138 -22.339998 -8.123019 -48.075803 -1.798284 1.675858 47.243896 4.133784 11.294327 -33.681808 174.192300 0.000001 -17.372300 10.133723 -3.239862 -3.107910 0.805147 -8.162520 -20.545908 -1.436417 -4.872368 75.283066 -2.230002 -12.657747 -9.672598 0.355700 0.000000 -55.245500
7.315320 15.571729 -1.677856 -160.838440 66.584371 -137.988458 -10.369849 -0.182241 1.612780 -22.711041 -8.443465 -47.433285 -1.834346 1.769475 48.712006 4.187716 11.007140 -35.375419 173.877000 -0.000000 -17.111700 10.247291 -3.042338 -3.054423 0.244240 -8.026601 -22.150461 -1.607774 -4.988063 77.148534 -2.343186 -13.314608 -10.447317 0.531501 0.000000 -53.774100
7.556119 15.531415 -1.774201 -162.477856 65.679516 -139.288909 -10.384589 -0.102256 1.580778 -23.085151 -8.656096 -46.612871 -1.894176 1.818007 49.617205 4.204195 10.599282 -36.710203 173.712000 0.000000 -16.335700 10.338426 -2.817013 -2.968692 -0.250950 -7.704043 -23.924110 -1.765080 -5.096007 78.802406 -2.437713 -13.829709 -11.158023 0.700500 -0.000000 -52.323200
7.790433 15.510157 -1.875218 -164.003048 64.748625 -140.428729 -10.407032 -0.024607 1.531560 -23.423635 -8.757635 -45.610641 -1.972265 1.822486 49.979451 4.181736 10.089749 -37.668007 173.693200 -0.000000 -15.212800 10.397509 -2.568006 -2.853239 -0.677119 -7.211270 -25.829584 -1.902784 -5.191326 80.207546 -2.507540 -14.167934 -11.801479 0.854500 0.000000 -50.909700
8.018571 15.507177 -1.981734 -165.373786 63.802089 -141.391362 -10.444403 0.047211 1.465696 -23.691799 -8.754815 -44.431657 -2.062212 1.786011 49.841492 4.121068 9.507222 -38.249382 173.803500 -0.000000 -13.947900 10.416745 -2.299028 -2.712804 -1.036074 -6.573773 -27.827410 -2.015086 -5.268877 81.329076 -2.549787 -14.314763 -12.374767 0.986200 -0.000000 -49.580200
8.240822 15.521254 -2.094296 -166.565788 62.850137 -142.173531 -10.502703 0.110231 1.385186 -23.861657 -8.662945 -43.089180 -2.156731 1.713438 49.265194 4.024864 8.885498 -38.469837 174.017600 0.000000 -12.745300 10.390984 -2.014053 -2.552858 -1.332468 -5.821912 -29.879453 -2.096479 -5.324203 82.137770 -2.564999 -14.276621 -12.877376 1.090700 -0.000000 -48.368200
8.457611 15.550893 -2.213168 -167.567484 61.901660 -142.778382 -10.586438 0.161814 1.293622 -23.912410 -8.505798 -41.607695 -2.247719 1.611205 48.327484 3.897148 8.259058 -38.353262 174.307200 0.000000 -11.762600 10.317501 -1.717233 -2.378711 -1.570582 -4.986550 -31.953680 -2.142399 -5.353939 82.611151 -2.556869 -14.078298 -13.308575 1.165900 0.000000 -47.302400
8.669390 15.594487 -2.338278 -168.382600 60.965577 -143.214415 -10.698508 0.199996 1.194970 -23.831420 -8.312249 -40.025334 -2.327180 1.487670 47.116705 3.741995 7.656026 -37.925350 174.647100 0.000000 -11.066700 10.195324 -1.411627 -2.195233 -1.752106 -4.094667 -34.028730 -2.150101 -5.355680 82.732996 -2.531965 -13.760692 -13.662317 1.211100 0.000001 -46.461600
